<svg width="29" height="28" viewBox="0 0 29 28" fill="none" xmlns="http://www.w3.org/2000/svg">
<path d="M16.9987 4.66663H23.9987V11.6666H16.9987V4.66663Z" stroke="#00B2BA" stroke-width="1.5" stroke-linecap="round" stroke-linejoin="round"/>
<path d="M5.33203 16.3333H12.332V23.3333H5.33203V16.3333Z" stroke="#00B2BA" stroke-width="1.5" stroke-linecap="round" stroke-linejoin="round"/>
<path d="M16.9987 19.8333C16.9987 20.7615 17.3674 21.6518 18.0238 22.3082C18.6802 22.9645 19.5704 23.3333 20.4987 23.3333C21.427 23.3333 22.3172 22.9645 22.9736 22.3082C23.6299 21.6518 23.9987 20.7615 23.9987 19.8333C23.9987 18.905 23.6299 18.0148 22.9736 17.3584C22.3172 16.702 21.427 16.3333 20.4987 16.3333C19.5704 16.3333 18.6802 16.702 18.0238 17.3584C17.3674 18.0148 16.9987 18.905 16.9987 19.8333Z" stroke="#00B2BA" stroke-width="1.5" stroke-linecap="round" stroke-linejoin="round"/>
<path d="M5.33203 8.16663C5.33203 8.62625 5.42256 9.08138 5.59845 9.50602C5.77434 9.93066 6.03215 10.3165 6.35716 10.6415C6.68216 10.9665 7.068 11.2243 7.49264 11.4002C7.91728 11.5761 8.3724 11.6666 8.83203 11.6666C9.29166 11.6666 9.74678 11.5761 10.1714 11.4002C10.5961 11.2243 10.9819 10.9665 11.3069 10.6415C11.6319 10.3165 11.8897 9.93066 12.0656 9.50602C12.2415 9.08138 12.332 8.62625 12.332 8.16663C12.332 7.707 12.2415 7.25187 12.0656 6.82723C11.8897 6.40259 11.6319 6.01676 11.3069 5.69175C10.9819 5.36675 10.5961 5.10894 10.1714 4.93305C9.74678 4.75716 9.29166 4.66663 8.83203 4.66663C8.3724 4.66663 7.91728 4.75716 7.49264 4.93305C7.068 5.10894 6.68216 5.36675 6.35716 5.69175C6.03215 6.01676 5.77434 6.40259 5.59845 6.82723C5.42256 7.25187 5.33203 7.707 5.33203 8.16663Z" stroke="#00B2BA" stroke-width="1.5" stroke-linecap="round" stroke-linejoin="round"/>
</svg>
