<svg width="20" height="20" viewBox="0 0 20 20" fill="none" xmlns="http://www.w3.org/2000/svg">
<path d="M9.56641 6.40625C7.56641 6.40625 5.97266 8.03125 5.97266 10C5.97266 12 7.56641 13.5938 9.56641 13.5938C11.5352 13.5938 13.1602 12 13.1602 10C13.1602 8.03125 11.5352 6.40625 9.56641 6.40625ZM9.56641 12.3438C8.28516 12.3438 7.22266 11.3125 7.22266 10C7.22266 8.71875 8.25391 7.6875 9.56641 7.6875C10.8477 7.6875 11.8789 8.71875 11.8789 10C11.8789 11.3125 10.8477 12.3438 9.56641 12.3438ZM14.1289 6.28125C14.1289 6.75 13.7539 7.125 13.2852 7.125C12.8164 7.125 12.4414 6.75 12.4414 6.28125C12.4414 5.8125 12.8164 5.4375 13.2852 5.4375C13.7539 5.4375 14.1289 5.8125 14.1289 6.28125ZM16.5039 7.125C16.4414 6 16.1914 5 15.3789 4.1875C14.5664 3.375 13.5664 3.125 12.4414 3.0625C11.2852 3 7.81641 3 6.66016 3.0625C5.53516 3.125 4.56641 3.375 3.72266 4.1875C2.91016 5 2.66016 6 2.59766 7.125C2.53516 8.28125 2.53516 11.75 2.59766 12.9062C2.66016 14.0312 2.91016 15 3.72266 15.8438C4.56641 16.6562 5.53516 16.9062 6.66016 16.9688C7.81641 17.0312 11.2852 17.0312 12.4414 16.9688C13.5664 16.9062 14.5664 16.6562 15.3789 15.8438C16.1914 15 16.4414 14.0312 16.5039 12.9062C16.5664 11.75 16.5664 8.28125 16.5039 7.125ZM15.0039 14.125C14.7852 14.75 14.2852 15.2188 13.6914 15.4688C12.7539 15.8438 10.5664 15.75 9.56641 15.75C8.53516 15.75 6.34766 15.8438 5.44141 15.4688C4.81641 15.2188 4.34766 14.75 4.09766 14.125C3.72266 13.2188 3.81641 11.0312 3.81641 10C3.81641 9 3.72266 6.8125 4.09766 5.875C4.34766 5.28125 4.81641 4.8125 5.44141 4.5625C6.34766 4.1875 8.53516 4.28125 9.56641 4.28125C10.5664 4.28125 12.7539 4.1875 13.6914 4.5625C14.2852 4.78125 14.7539 5.28125 15.0039 5.875C15.3789 6.8125 15.2852 9 15.2852 10C15.2852 11.0312 15.3789 13.2188 15.0039 14.125Z" fill="#F3FBFC"/>
</svg>
