<svg width="20" height="20" viewBox="0 0 20 20" fill="none" xmlns="http://www.w3.org/2000/svg">
<rect width="20" height="20" fill="#F3FBFC"/>
<path d="M5.69141 16H2.78516V6.65628H5.69141V16ZM4.22266 5.40628C3.31641 5.40628 2.56641 4.62503 2.56641 3.68753C2.56641 2.40628 3.94141 1.59378 5.06641 2.25003C5.59766 2.53128 5.91016 3.09378 5.91016 3.68753C5.91016 4.62503 5.16016 5.40628 4.22266 5.40628ZM16.5352 16H13.6602V11.4688C13.6602 10.375 13.6289 9.00003 12.1289 9.00003C10.6289 9.00003 10.4102 10.1563 10.4102 11.375V16H7.50391V6.65628H10.2852V7.93753H10.3164C10.7227 7.21878 11.6602 6.43753 13.0664 6.43753C16.0039 6.43753 16.5664 8.37503 16.5664 10.875V16H16.5352Z" fill="#002425"/>
</svg>
